<svg width="31" height="30" viewBox="0 0 31 30" fill="none" xmlns="http://www.w3.org/2000/svg">
<g id="Group">
<path id="Vector" d="M15.1606 2.7025C19.1656 2.7025 19.6406 2.7175 21.2219 2.79C22.8569 2.865 24.5406 3.2375 25.7319 4.42875C26.9344 5.63125 27.2956 7.29875 27.3706 8.93875C27.4431 10.52 27.4581 10.995 27.4581 15C27.4581 19.005 27.4431 19.48 27.3706 21.0613C27.2969 22.6875 26.9156 24.3875 25.7319 25.5713C24.5294 26.7738 22.8631 27.135 21.2219 27.21C19.6406 27.2825 19.1656 27.2975 15.1606 27.2975C11.1556 27.2975 10.6806 27.2825 9.09939 27.21C7.48564 27.1362 5.76314 26.7463 4.58939 25.5713C3.39314 24.375 3.02564 22.6913 2.95064 21.0613C2.87814 19.48 2.86314 19.005 2.86314 15C2.86314 10.995 2.87814 10.52 2.95064 8.93875C3.02439 7.31875 3.40939 5.60875 4.58939 4.42875C5.78939 3.22875 7.46314 2.865 9.09939 2.79C10.6806 2.7175 11.1556 2.7025 15.1606 2.7025ZM15.1606 0C11.0869 0 10.5756 0.0175 8.97565 0.09C6.65689 0.19625 4.35439 0.84125 2.67814 2.5175C0.995645 4.2 0.356895 6.4975 0.250645 8.815C0.178145 10.415 0.160645 10.9262 0.160645 15C0.160645 19.0737 0.178145 19.585 0.250645 21.185C0.356895 23.5012 1.00439 25.81 2.67814 27.4825C4.35939 29.1637 6.66064 29.8037 8.97565 29.91C10.5756 29.9825 11.0869 30 15.1606 30C19.2344 30 19.7456 29.9825 21.3456 29.91C23.6631 29.8037 25.9681 29.1575 27.6431 27.4825C29.3269 25.7987 29.9644 23.5025 30.0706 21.185C30.1431 19.585 30.1606 19.0737 30.1606 15C30.1606 10.9262 30.1431 10.415 30.0706 8.815C29.9644 6.49625 29.3181 4.1925 27.6431 2.5175C25.9644 0.83875 23.6569 0.195 21.3456 0.09C19.7456 0.0175 19.2344 0 15.1606 0Z" fill="white"/>
<path id="Vector_2" d="M15.1605 7.29688C10.9068 7.29688 7.45801 10.7456 7.45801 14.9994C7.45801 19.2531 10.9068 22.7019 15.1605 22.7019C19.4143 22.7019 22.863 19.2531 22.863 14.9994C22.863 10.7456 19.4143 7.29688 15.1605 7.29688ZM15.1605 19.9994C12.3993 19.9994 10.1605 17.7606 10.1605 14.9994C10.1605 12.2381 12.3993 9.99938 15.1605 9.99938C17.9218 9.99938 20.1605 12.2381 20.1605 14.9994C20.1605 17.7606 17.9218 19.9994 15.1605 19.9994Z" fill="white"/>
<path id="Vector_3" d="M23.1682 8.79531C24.1623 8.79531 24.9682 7.98943 24.9682 6.99531C24.9682 6.0012 24.1623 5.19531 23.1682 5.19531C22.1741 5.19531 21.3682 6.0012 21.3682 6.99531C21.3682 7.98943 22.1741 8.79531 23.1682 8.79531Z" fill="white"/>
</g>
</svg>
