<svg width="31" height="31" viewBox="0 0 31 31" fill="none" xmlns="http://www.w3.org/2000/svg">
<g id="icon-linkedin 1" clip-path="url(#clip0_109_3944)">
<path id="Vector" d="M15.4346 0.257812C7.14969 0.257812 0.43457 6.97293 0.43457 15.2578C0.43457 23.5427 7.14969 30.2578 15.4346 30.2578C23.7195 30.2578 30.4346 23.5427 30.4346 15.2578C30.4346 6.97293 23.7195 0.257812 15.4346 0.257812ZM10.8648 23.1241H7.21073V11.377H10.8648V23.1241ZM9.03341 9.76363C7.8648 9.76363 6.91422 8.81304 6.91422 7.64444C6.91422 6.47584 7.8648 5.52525 9.03341 5.52525C10.202 5.52525 11.1526 6.47584 11.1526 7.64444C11.1526 8.81304 10.202 9.76363 9.03341 9.76363ZM24.5305 23.1241H20.8852V17.4119C20.8852 16.0514 20.859 14.2985 18.984 14.2985C17.0828 14.2985 16.795 15.7811 16.795 17.316V23.1328H13.1497V11.377H16.6555V12.9816H16.6991C17.4142 11.7607 18.7398 11.0282 20.1526 11.0805C23.8503 11.0805 24.5305 13.5136 24.5305 16.6793V23.1241Z" fill="white"/>
</g>
<defs>
<clipPath id="clip0_109_3944">
<rect width="30" height="30.1744" fill="white" transform="translate(0.43457)"/>
</clipPath>
</defs>
</svg>
