<svg width="33" height="25" viewBox="0 0 33 25" fill="none" xmlns="http://www.w3.org/2000/svg">
<g id="Frame">
<path id="Vector" d="M17.0203 12.56C16.7753 12.7258 16.457 12.8176 16.127 12.8176C15.797 12.8176 15.4787 12.7258 15.2337 12.56L3.927 4.85C4.37068 4.62206 4.89588 4.50005 5.43367 4.5H26.767C27.3048 4.50005 27.83 4.62206 28.2737 4.85L17.0203 12.56Z" fill="#E8E8E8"/>
<path id="Vector_2" d="M29.4338 6.75781V17.4978C29.4338 18.2935 29.0123 19.0565 28.2622 19.6191C27.512 20.1817 26.4946 20.4978 25.4338 20.4978H6.76709C5.70622 20.4978 4.68881 20.1817 3.93866 19.6191C3.18852 19.0565 2.76709 18.2935 2.76709 17.4978V6.75781L14.3404 14.6778C14.8285 14.9957 15.454 15.1699 16.1004 15.1678C16.755 15.1668 17.3861 14.9853 17.8738 14.6578L29.4338 6.75781Z" fill="#E8E8E8"/>
</g>
</svg>
